<svg width="54" height="54" viewBox="0 0 54 54" fill="none" xmlns="http://www.w3.org/2000/svg">
<rect width="54" height="54" rx="26" fill="white"/>
<path d="M18 36H36V18H18V36ZM27 51C23.72 51 20.62 50.37 17.7 49.11C14.78 47.85 12.23 46.13 10.05 43.95C7.87 41.77 6.15 39.22 4.89 36.3C3.63 33.38 3 30.28 3 27C3 23.68 3.63 20.56 4.89 17.64C6.15 14.72 7.87 12.18 10.05 10.02C12.23 7.86 14.78 6.15 17.7 4.89C20.62 3.63 23.72 3 27 3C30.32 3 33.44 3.63 36.36 4.89C39.28 6.15 41.82 7.86 43.98 10.02C46.14 12.18 47.85 14.72 49.11 17.64C50.37 20.56 51 23.68 51 27C51 30.28 50.37 33.38 49.11 36.3C47.85 39.22 46.14 41.77 43.98 43.95C41.82 46.13 39.28 47.85 36.36 49.11C33.44 50.37 30.32 51 27 51Z" fill="#FF6969"/>
</svg>
