<svg width="36" height="36" viewBox="0 0 36 36" fill="none" xmlns="http://www.w3.org/2000/svg">
<rect width="36" height="36" rx="18" fill="white"/>
<path d="M14.3333 9.75C11.8061 9.75 9.75 11.8061 9.75 14.3333V21.6667C9.75 24.1939 11.8061 26.25 14.3333 26.25H21.6667C24.1939 26.25 26.25 24.1939 26.25 21.6667V14.3333C26.25 11.8061 24.1939 9.75 21.6667 9.75H14.3333ZM14.3333 11.5833H21.6667C23.1828 11.5833 24.4167 12.8172 24.4167 14.3333V21.6667C24.4167 23.1828 23.1828 24.4167 21.6667 24.4167H14.3333C12.8172 24.4167 11.5833 23.1828 11.5833 21.6667V14.3333C11.5833 12.8172 12.8172 11.5833 14.3333 11.5833ZM22.5833 12.5C22.3402 12.5 22.1071 12.5966 21.9352 12.7685C21.7632 12.9404 21.6667 13.1736 21.6667 13.4167C21.6667 13.6598 21.7632 13.8929 21.9352 14.0648C22.1071 14.2368 22.3402 14.3333 22.5833 14.3333C22.8264 14.3333 23.0596 14.2368 23.2315 14.0648C23.4034 13.8929 23.5 13.6598 23.5 13.4167C23.5 13.1736 23.4034 12.9404 23.2315 12.7685C23.0596 12.5966 22.8264 12.5 22.5833 12.5ZM18 13.4167C15.4728 13.4167 13.4167 15.4728 13.4167 18C13.4167 20.5273 15.4728 22.5833 18 22.5833C20.5273 22.5833 22.5833 20.5273 22.5833 18C22.5833 15.4728 20.5273 13.4167 18 13.4167ZM18 15.25C19.5162 15.25 20.75 16.4838 20.75 18C20.75 19.5162 19.5162 20.75 18 20.75C16.4838 20.75 15.25 19.5162 15.25 18C15.25 16.4838 16.4838 15.25 18 15.25Z" fill="#4F8EFE"/>
</svg>
