<svg width="36" height="36" viewBox="0 0 36 36" fill="none" xmlns="http://www.w3.org/2000/svg">
<path fill-rule="evenodd" clip-rule="evenodd" d="M18 0C8.05887 0 0 8.05859 0 18C0 27.9414 8.05887 36 18 36C27.9411 36 36 27.9414 36 18C36 8.05859 27.9411 0 18 0ZM10.6667 24.667H14V14.667H10.6667V24.667ZM10.6667 11.666C10.6667 12.5859 11.412 13.333 12.334 13.333C13.2527 13.333 14 12.5859 14 11.666C14 10.7471 13.2527 10 12.334 10C11.4133 10 10.6667 10.7461 10.6667 11.666ZM22.7953 24.667H26V19.1777C26 16.4834 25.4 14.4111 22.1533 14.4111C20.5933 14.4111 19.5473 15.2402 19.1193 16.0264H19.076V14.6592H16V24.667H19.204V19.7158C19.204 18.4111 19.4607 17.1465 21.1293 17.1465C22.7733 17.1465 22.7953 18.6396 22.7953 19.7998V24.667Z" fill="#1A2028"/>
</svg>
