<svg width="36" height="36" viewBox="0 0 36 36" fill="none" xmlns="http://www.w3.org/2000/svg">
<path fill-rule="evenodd" clip-rule="evenodd" d="M18 0C8.05887 0 0 8.05859 0 18C0 27.9414 8.05887 36 18 36C27.9411 36 36 27.9414 36 18C36 8.05859 27.9411 0 18 0ZM22.2327 23.1309L24.5376 12.2617C24.7422 11.3037 24.1932 10.9287 23.5659 11.1641L10.0163 16.3838C9.09235 16.7451 9.10596 17.2637 9.85947 17.499L13.3236 18.583L21.3701 13.5166C21.7486 13.2637 22.0929 13.4033 21.8099 13.6562L15.3011 19.5371L15.0488 23.1143C15.4102 23.1143 15.5671 22.957 15.7546 22.7695L17.4491 21.1396L20.9609 23.7275C21.6053 24.0889 22.0588 23.8984 22.2327 23.1309Z" fill="#1A2028"/>
</svg>
