<svg width="65" height="61" viewBox="0 0 65 61" fill="none" xmlns="http://www.w3.org/2000/svg">
<path d="M23.6 32.5588L25.7 30.4588L19.5 24.2588V15.3588H16.5V25.4588L23.6 32.5588ZM36.35 41.6588V38.2588C38.9833 37.0255 41.0833 35.2088 42.65 32.8088C44.2167 30.4088 45 27.7422 45 24.8088C45 21.9088 44.2167 19.2505 42.65 16.8338C41.0833 14.4172 38.9833 12.6088 36.35 11.4088V8.00884C39.8167 9.40884 42.625 11.6255 44.775 14.6588C46.925 17.6922 48 21.0755 48 24.8088C48 28.5422 46.9333 31.9338 44.8 34.9838C42.6667 38.0338 39.85 40.2588 36.35 41.6588ZM18 42.8088C15.5 42.8088 13.1583 42.3338 10.975 41.3838C8.79167 40.4338 6.89167 39.1505 5.275 37.5338C3.65833 35.9172 2.375 34.0172 1.425 31.8338C0.475 29.6505 0 27.3088 0 24.8088C0 22.3088 0.475 19.9672 1.425 17.7838C2.375 15.6005 3.65833 13.7005 5.275 12.0838C6.89167 10.4672 8.79167 9.18384 10.975 8.23384C13.1583 7.28384 15.5 6.80884 18 6.80884C20.5 6.80884 22.8417 7.28384 25.025 8.23384C27.2083 9.18384 29.1083 10.4672 30.725 12.0838C32.3417 13.7005 33.625 15.6005 34.575 17.7838C35.525 19.9672 36 22.3088 36 24.8088C36 27.3088 35.525 29.6505 34.575 31.8338C33.625 34.0172 32.3417 35.9172 30.725 37.5338C29.1083 39.1505 27.2083 40.4338 25.025 41.3838C22.8417 42.3338 20.5 42.8088 18 42.8088ZM18 39.8088C22.1333 39.8088 25.6667 38.3505 28.6 35.4338C31.5333 32.5172 33 28.9755 33 24.8088C33 20.6755 31.5333 17.1422 28.6 14.2088C25.6667 11.2755 22.1333 9.80884 18 9.80884C13.8333 9.80884 10.2917 11.2755 7.375 14.2088C4.45833 17.1422 3 20.6755 3 24.8088C3 28.9755 4.45833 32.5172 7.375 35.4338C10.2917 38.3505 13.8333 39.8088 18 39.8088Z" fill="#4F8EFE" fill-opacity="0.3"/>
<path d="M40.6 44.5588L42.7 42.4588L36.5 36.2588V27.3588H33.5V37.4588L40.6 44.5588ZM53.35 53.6588V50.2588C55.9833 49.0255 58.0833 47.2088 59.65 44.8088C61.2167 42.4088 62 39.7422 62 36.8088C62 33.9088 61.2167 31.2505 59.65 28.8338C58.0833 26.4172 55.9833 24.6088 53.35 23.4088V20.0088C56.8167 21.4088 59.625 23.6255 61.775 26.6588C63.925 29.6922 65 33.0755 65 36.8088C65 40.5422 63.9333 43.9338 61.8 46.9838C59.6667 50.0338 56.85 52.2588 53.35 53.6588ZM35 54.8088C32.5 54.8088 30.1583 54.3338 27.975 53.3838C25.7917 52.4338 23.8917 51.1505 22.275 49.5338C20.6583 47.9172 19.375 46.0172 18.425 43.8338C17.475 41.6505 17 39.3088 17 36.8088C17 34.3088 17.475 31.9672 18.425 29.7838C19.375 27.6005 20.6583 25.7005 22.275 24.0838C23.8917 22.4672 25.7917 21.1838 27.975 20.2338C30.1583 19.2838 32.5 18.8088 35 18.8088C37.5 18.8088 39.8417 19.2838 42.025 20.2338C44.2083 21.1838 46.1083 22.4672 47.725 24.0838C49.3417 25.7005 50.625 27.6005 51.575 29.7838C52.525 31.9672 53 34.3088 53 36.8088C53 39.3088 52.525 41.6505 51.575 43.8338C50.625 46.0172 49.3417 47.9172 47.725 49.5338C46.1083 51.1505 44.2083 52.4338 42.025 53.3838C39.8417 54.3338 37.5 54.8088 35 54.8088ZM35 51.8088C39.1333 51.8088 42.6667 50.3505 45.6 47.4338C48.5333 44.5172 50 40.9755 50 36.8088C50 32.6755 48.5333 29.1422 45.6 26.2088C42.6667 23.2755 39.1333 21.8088 35 21.8088C30.8333 21.8088 27.2917 23.2755 24.375 26.2088C21.4583 29.1422 20 32.6755 20 36.8088C20 40.9755 21.4583 44.5172 24.375 47.4338C27.2917 50.3505 30.8333 51.8088 35 51.8088Z" fill="#4F8EFE"/>
</svg>
