<svg width="66" height="61" viewBox="0 0 66 61" fill="none" xmlns="http://www.w3.org/2000/svg">
<path d="M14.5 34.3589H21.5V27.3589H14.5V34.3589ZM26.5 34.3589H33.5V27.3589H26.5V34.3589ZM14.5 22.3589H21.5V15.3589H14.5V22.3589ZM26.5 22.3589H33.5V15.3589H26.5V22.3589ZM9 42.8589C8.2 42.8589 7.5 42.5589 6.9 41.9589C6.3 41.3589 6 40.6589 6 39.8589V9.85889C6 9.05889 6.3 8.35889 6.9 7.75889C7.5 7.15889 8.2 6.85889 9 6.85889H39C39.8 6.85889 40.5 7.15889 41.1 7.75889C41.7 8.35889 42 9.05889 42 9.85889V39.8589C42 40.6589 41.7 41.3589 41.1 41.9589C40.5 42.5589 39.8 42.8589 39 42.8589H9ZM9 39.8589H39V9.85889H9V39.8589ZM9 9.85889V39.8589V9.85889Z" fill="#4F8EFE" fill-opacity="0.3"/>
<path d="M32.5 46.3589H39.5V39.3589H32.5V46.3589ZM44.5 46.3589H51.5V39.3589H44.5V46.3589ZM32.5 34.3589H39.5V27.3589H32.5V34.3589ZM44.5 34.3589H51.5V27.3589H44.5V34.3589ZM27 54.8589C26.2 54.8589 25.5 54.5589 24.9 53.9589C24.3 53.3589 24 52.6589 24 51.8589V21.8589C24 21.0589 24.3 20.3589 24.9 19.7589C25.5 19.1589 26.2 18.8589 27 18.8589H57C57.8 18.8589 58.5 19.1589 59.1 19.7589C59.7 20.3589 60 21.0589 60 21.8589V51.8589C60 52.6589 59.7 53.3589 59.1 53.9589C58.5 54.5589 57.8 54.8589 57 54.8589H27ZM27 51.8589H57V21.8589H27V51.8589ZM27 21.8589V51.8589V21.8589Z" fill="#4F8EFE"/>
</svg>
