<svg width="175" height="536" viewBox="0 0 175 536" fill="none" xmlns="http://www.w3.org/2000/svg">
<g clip-path="url(#clip0_81_153)">
<path d="M52.7236 179.226C52.7236 179.226 52.9387 216.592 55.8065 223.491C57.4811 227.309 58.4538 231.399 58.6775 235.563L63.8782 181.081L52.7236 179.226Z" fill="#F1D3CA"/>
<path d="M97.6808 3.41075C100.166 3.11782 102.631 2.66994 105.06 2.06974C107.803 1.37532 111.329 0.623039 113.438 0.724888C117.877 0.939387 125.181 2.89378 128.36 8.16213C132.32 14.726 142.28 12.0455 134.562 40.6063C125.824 72.9356 108.37 65.6241 108.04 64.9798C107.71 64.3355 96.0893 40.7144 96.0893 40.7144C96.0893 40.7144 88.1086 51.6708 88.1995 51.2264C88.2827 50.7989 67.8396 7.11974 97.6808 3.41075Z" fill="#1A2E35"/>
<path d="M65.1456 187.111C65.1456 187.111 96.1938 145.533 99.79 129.728C103.386 113.924 90.7684 93.2011 76.4466 93.7623C62.1249 94.3235 47.2908 178.394 47.2908 178.394L65.1456 187.111Z" fill="#1A2E35"/>
<path d="M50.8614 500.449C50.8614 500.449 51.8502 518.265 51.8564 518.302C52.2209 520.564 53.6521 526.151 53.6521 528.209C53.6521 535.934 19.9466 521.65 27.5003 518.228C28.1824 517.919 31.7662 515.574 31.9889 512.946C32.3358 508.895 33.2136 500.699 33.2136 500.699L50.8614 500.449Z" fill="#F1D3CA"/>
<path d="M27.587 518.15C27.587 518.15 35.5007 520.512 39.5531 521.103C43.6055 521.694 48.9504 516.721 51.8166 518.063C54.9719 519.542 54.6537 534.104 54.6537 534.104C54.6537 534.104 6.30926 535.959 0.820251 533.538C-3.7308 531.534 11.4113 523.656 27.587 518.15Z" fill="#1A2E35"/>
<path d="M125.126 501.598C125.126 501.598 126.114 519.414 126.12 519.451C126.484 521.713 127.915 527.301 127.915 529.358C127.915 537.083 94.2093 522.799 101.763 519.377C102.445 519.068 107.091 514.974 107.312 512.344C107.658 508.294 107.476 501.851 107.476 501.851L125.126 501.598Z" fill="#F1D3CA"/>
<path d="M101.844 519.302C101.844 519.302 109.756 521.665 113.81 522.255C117.864 522.846 123.207 517.871 126.074 519.215C129.228 520.694 129.355 531.956 129.355 534.004C129.355 536.052 87.3257 536.428 73.5785 534.209C68.6691 533.422 85.6687 524.805 101.844 519.302Z" fill="#1A2E35"/>
<path d="M71.7106 244.407L57.4602 250.676L27.4849 396.652L28.6995 506.085L52.7295 506.654C52.7295 506.654 63.9048 410.929 63.9048 403.509C63.9048 396.09 115.673 273.686 115.673 273.686L71.7106 244.407Z" fill="#B1B1B1"/>
<path d="M82.7095 252.439C82.7095 252.439 93.2081 364.908 93.2081 383.868C93.2081 402.827 101.72 508.934 101.72 508.934L125.806 508.792C125.806 508.792 127.544 476.45 130.122 428.869C130.527 421.417 129.601 406.38 130.122 398.664C133.872 343.178 141.28 290.944 137.74 270.239C137.172 266.907 136.1 258.193 134.015 255.993C118.243 239.36 82.7095 252.439 82.7095 252.439Z" fill="#D1D1D1"/>
<path d="M122.379 84.2445C122.379 84.2445 138.999 86.6017 143.373 89.8771C148.301 93.5668 153.767 101.822 153.767 101.822C153.767 101.822 133.367 200.19 133.327 216.742C133.298 229.55 137.744 260.99 137.744 260.99C137.744 260.99 76.079 264.96 52.7241 255.559C52.7241 255.559 60.0999 218.162 60.0999 208.343C60.0999 198.524 68.9207 109.234 70.9284 102.999C72.7504 97.3398 76.079 87.1735 87.3484 84.6666C98.6177 82.1597 122.379 84.2445 122.379 84.2445Z" fill="#1A2E35"/>
<path d="M117.838 57.7623L121.951 85.2305C121.951 85.2305 106.927 117.937 97.9583 115.099C90.4331 112.72 95.0604 83.7808 95.0604 83.7808C95.1737 83.0593 99.3102 67.2851 97.9321 60.4628C96.3815 52.7455 117.838 57.7623 117.838 57.7623Z" fill="#F1D3CA" stroke="black"/>
<path d="M97.9419 60.4614C96.7088 52.6854 117.845 57.7609 117.845 57.7609L118.186 60.0394L116.319 62.0763C113.163 67.2541 109.044 71.7772 104.185 75.4C102.034 76.3259 99.9303 76.4085 96.7134 75.9162C97.3546 71.7226 98.4413 63.6511 97.9419 60.4614Z" fill="#1F3137"/>
<path d="M110.628 15.2189C108.448 14.4127 106.118 14.0946 103.801 14.2869C101.485 14.4792 99.2391 15.1773 97.2213 16.332C95.2035 17.4868 93.463 19.0701 92.1222 20.9707C90.7814 22.8712 89.8728 25.0428 89.4604 27.3327C88.5552 32.3829 87.9717 37.4856 87.7132 42.61C87.045 56.5463 93.8257 70.3205 100.129 70.5018C106.433 70.6832 124.125 62.1611 125.347 42.3862C126.1 30.1768 120.355 18.9009 110.628 15.2189Z" fill="#F1D3CA"/>
<path d="M68.1492 185.519C70.6756 183.092 78.7388 184.37 82.1045 183.628C82.7773 183.479 82.8752 180.841 81.6929 179.707C81.649 179.63 77.1041 175.1 77.5188 172.95C77.9334 170.8 79.3569 171.853 82.3627 174.085C85.3685 176.317 87.8293 180.153 89.5419 181.878C90.5138 182.831 91.3677 183.898 92.0852 185.055C92.6944 185.258 93.3186 185.413 93.9519 185.518C105.096 186.952 123.298 184.407 151.033 180.04L151.066 165.473C156.939 165.821 167.193 164.797 171.922 164.267C171.673 175.377 171.813 194.641 169.441 198.32C167.777 200.897 153.138 202.633 136.847 203.875C116.093 205.467 110.65 204.28 92.6247 203.022C87.165 202.618 79.6652 204.287 76.8166 204.305C72.5824 204.332 71.0957 204.804 68.9554 202.576C67.1504 200.699 66.2047 195.511 66.5045 192.648C67.0671 187.233 65.6205 187.946 68.1492 185.519Z" fill="#F1D3CA"/>
<path d="M68.171 123.583C67.3648 127.235 66.9162 130.956 66.832 134.694C66.6409 141.206 66.832 141.975 66.832 141.975" stroke="white" stroke-linecap="round"/>
<path d="M61.7456 228.801C61.7456 228.801 66.1626 227.084 67.8774 225.698C69.5923 224.313 69.8546 224.114 69.8546 224.114" stroke="#1A2E35"/>
<path d="M140.314 88.3308C140.314 88.3308 150.045 90.6162 160.098 102.137C169.24 112.612 175.001 171.276 175.001 171.276L143.433 176.481L140.913 148.101L132.478 135.121L140.314 88.3308Z" fill="#1A2E35"/>
<path d="M140.028 106.552C140.028 106.552 137.441 144.215 140.028 153.602C142.615 162.989 142.291 161.37 142.291 161.37C142.291 161.37 140.092 155.512 142.291 144.992C144.49 134.472 146.592 129.422 146.592 129.422" stroke="white" stroke-linecap="round"/>
<g filter="url(#filter0_d_81_153)">
<path d="M120.653 43.8169C120.562 46.8917 122.517 49.4448 125.022 49.5158C127.527 49.5868 129.631 47.1532 129.723 44.0777C129.816 41.0021 127.858 38.4513 125.355 38.3788C122.852 38.3063 120.745 40.7375 120.653 43.8169Z" fill="#F1D3CA"/>
</g>
<path d="M125.352 38.3786C125.352 38.3786 117.619 38.7066 115.853 33.4089C114.086 28.1112 106.407 15.8894 93.126 17.5961C79.8451 19.3029 106.151 9.5192 107.146 9.72135C108.141 9.92351 120.075 12.2768 120.075 12.2768C120.075 12.2768 127.719 21.7194 127.881 22.616C128.044 23.5126 128.844 33.1188 128.844 33.1188L125.352 38.3786Z" fill="#1A2E35"/>
<path d="M110.843 33.5068C112.109 34.4103 110.185 30.4043 108.454 29.9236C107.693 29.6565 106.857 29.7012 106.129 30.048C105.401 30.3949 104.839 31.0157 104.566 31.7754C106.797 31.5994 109.02 32.2133 110.846 33.5099L110.843 33.5068Z" fill="#10192E"/>
<path d="M92.2201 33.5609C90.5916 34.1635 91.3299 32.0633 92.644 31.1227C94.4937 30.3265 96.4759 30.7516 97.1596 32.3495C97.1603 32.3503 93.2975 33.162 92.2201 33.5609Z" fill="#10192E"/>
<path d="M105.082 40.4911C105.459 40.4911 105.765 39.8023 105.765 38.9526C105.765 38.1029 105.459 37.4141 105.082 37.4141C104.705 37.4141 104.399 38.1029 104.399 38.9526C104.399 39.8023 104.705 40.4911 105.082 40.4911Z" fill="#10192E"/>
<path d="M96.999 39.0623C96.999 39.9157 97.3073 40.6055 97.6811 40.6055C98.0549 40.6055 98.3632 39.9164 98.3632 39.0623C98.3632 38.2082 98.0549 37.5269 97.6811 37.5269C97.3073 37.5269 96.999 38.2128 96.999 39.0623Z" fill="#10192E"/>
<path d="M97.3491 54.8225C97.3491 54.8225 105.458 54.9699 106.55 54.8997C106.55 54.8997 103.379 58.2483 100.676 58.1017C97.9734 57.9551 97.3491 54.8225 97.3491 54.8225Z" fill="white"/>
</g>
<defs>
<filter id="filter0_d_81_153" x="114.65" y="35.3772" width="21.0762" height="23.1401" filterUnits="userSpaceOnUse" color-interpolation-filters="sRGB">
<feFlood flood-opacity="0" result="BackgroundImageFix"/>
<feColorMatrix in="SourceAlpha" type="matrix" values="0 0 0 0 0 0 0 0 0 0 0 0 0 0 0 0 0 0 127 0" result="hardAlpha"/>
<feOffset dy="3"/>
<feGaussianBlur stdDeviation="3"/>
<feColorMatrix type="matrix" values="0 0 0 0 0 0 0 0 0 0 0 0 0 0 0 0 0 0 0.161 0"/>
<feBlend mode="normal" in2="BackgroundImageFix" result="effect1_dropShadow_81_153"/>
<feBlend mode="normal" in="SourceGraphic" in2="effect1_dropShadow_81_153" result="shape"/>
</filter>
<clipPath id="clip0_81_153">
<rect width="175" height="535" fill="white" transform="translate(0 0.716309)"/>
</clipPath>
</defs>
</svg>
