<svg width="81" height="92" viewBox="0 0 81 92" fill="none" xmlns="http://www.w3.org/2000/svg">
<g clip-path="url(#clip0_5_314)">
<path d="M77.8538 76.0352L75.2738 66.2807L70.5073 67.5675L67.9903 58.1148L73.9681 56.5102L81 49.3929L79.6943 44.4521L78.4201 39.6384L73.6535 40.9252L72.3793 36.1115L67.6127 37.3983L66.3228 32.5846L61.5562 33.8714L60.282 29.0577L55.5154 30.3446L54.2412 25.5467L49.4747 26.8336L48.2004 22.0198L43.4339 23.3067L42.1596 18.4929L37.3931 19.7798L36.1189 14.9661L31.3523 16.2529L30.0623 11.4392L25.3115 12.726L24.0216 7.92818L19.255 9.21501L17.9808 4.40129L13.2142 5.68813L11.94 0.874405L7.03185 2.19302L0 9.31033L21.7405 91.2707L26.6487 89.9362L31.4152 88.6494L38.4471 81.5479L37.8808 79.4032L41.7664 75.495L41.9394 75.4474L41.3731 73.3027L42.2855 72.3812L44.2991 80.0069L49.0656 78.7201L51.6141 88.3475L56.3807 87.0607L57.6706 91.8744L67.3296 89.2531L74.3614 82.1516L73.7951 80.0069L77.6807 76.0987L77.8538 76.0352Z" fill="black"/>
<path d="M58.3785 83.5656L53.612 84.8683L51.0635 75.2409L46.2969 76.5277L43.7328 66.9002L38.2268 72.4448L38.7774 74.4942L34.7502 78.5612L35.3166 80.69L29.9522 86.1075L23.7384 87.7915L3.14624 10.1523L8.49485 4.75079L9.95785 4.35362L11.2321 9.16734L15.9986 7.88051L17.2729 12.6942L22.0394 11.4074L23.3137 16.2211L28.0802 14.9343L29.3544 19.7321L34.121 18.4453L35.3952 23.259L40.1618 21.9722L41.436 26.7859L46.2026 25.499L47.4925 30.3128L52.2591 29.0259L53.5333 33.8397L58.2999 32.5369L59.5741 37.3507L64.3406 36.0638L65.6149 40.8775L70.3814 39.5907L71.6557 44.4044L76.4222 43.1176L77.8695 48.5509L72.5051 53.9524L64.5452 56.1131L68.5094 71.0467L73.276 69.7599L74.6918 75.082L70.6646 79.149L71.2309 81.2937L65.8823 86.6953L59.6527 88.3952L58.3785 83.5656Z" fill="white"/>
<path d="M73.6063 41.0046L72.3164 36.2386L67.597 37.5413L66.3228 32.7752L61.6034 34.0621L60.3292 29.296L55.6098 30.5829L54.3356 25.8168L49.6162 27.1036L48.342 22.3376L43.6226 23.6244L42.3484 18.8583L37.6291 20.1611L36.3391 15.395L31.6197 16.6818L30.3298 11.9158L25.6104 13.2026L24.3362 8.43655L19.6168 9.72339L18.3426 4.95733L13.6232 6.24416L12.349 1.4781L7.62964 2.78083L29.3387 84.5982L34.0581 83.3114L38.7774 82.0245L37.5032 77.2585L42.2226 75.9716L40.9326 71.2056L45.652 69.9029L44.0474 64.4219L48.7668 63.1192L51.3309 72.7466L56.0503 71.4598L58.5988 81.0872L63.3181 79.8004L64.5924 84.5664L74.1255 81.9769L72.8512 77.2108L77.5706 75.924L75.0064 66.2965L70.287 67.5993L67.8959 58.0671L63.1765 59.354L61.9023 54.5879L80.9685 49.4247L79.6943 44.6586L78.4201 39.8926L73.6063 41.0046Z" fill="white"/>
<path d="M11.9065 0.949518L7.13525 2.24063L28.8447 84.0631L33.616 82.7719L11.9065 0.949518Z" fill="black"/>
<path d="M17.9437 4.4945L13.1726 5.78645L14.4519 10.6047L19.223 9.31277L17.9437 4.4945Z" fill="black"/>
<path d="M23.9709 8.00564L19.1998 9.29759L20.4791 14.1159L25.2502 12.8239L23.9709 8.00564Z" fill="black"/>
<path d="M30.0335 11.5223L25.2627 12.815L26.5428 17.6331L31.3137 16.3403L30.0335 11.5223Z" fill="black"/>
<path d="M36.0785 15.0524L31.307 16.3427L32.5846 21.1614L37.3561 19.8712L36.0785 15.0524Z" fill="black"/>
<path d="M42.3061 18.5965L37.5146 19.8935L38.7989 24.7323L43.5904 23.4353L42.3061 18.5965Z" fill="black"/>
<path d="M48.1542 22.0921L43.3832 23.384L44.6625 28.2023L49.4335 26.9104L48.1542 22.0921Z" fill="black"/>
<path d="M54.1855 25.6186L49.4144 26.9105L50.6937 31.7288L55.4648 30.4368L54.1855 25.6186Z" fill="black"/>
<path d="M60.2325 29.145L55.4614 30.437L56.7407 35.2553L61.5118 33.9633L60.2325 29.145Z" fill="black"/>
<path d="M66.5878 32.7363L61.7964 34.0333L63.0807 38.8721L67.8721 37.5751L66.5878 32.7363Z" fill="black"/>
<path d="M72.3389 36.2079L67.5676 37.4991L68.8461 42.3176L73.6174 41.0264L72.3389 36.2079Z" fill="black"/>
<path d="M78.3658 39.7202L73.5945 41.0114L74.8729 45.8299L79.6442 44.5387L78.3658 39.7202Z" fill="black"/>
<path d="M80.0257 44.624L56.0991 51.1007L57.3834 55.9396L81.31 49.4628L80.0257 44.624Z" fill="black"/>
<path d="M61.8595 54.5115L57.0883 55.8026L58.3667 60.6211L63.138 59.33L61.8595 54.5115Z" fill="black"/>
<path d="M47.5543 58.3821L42.7828 59.6724L44.0605 64.4911L48.832 63.2008L47.5543 58.3821Z" fill="black"/>
<path d="M53.6014 61.8962L48.8303 63.1882L51.3848 72.8094L56.1559 71.5174L53.6014 61.8962Z" fill="black"/>
<path d="M60.918 70.2314L56.147 71.5233L58.7015 81.1445L63.4726 79.8526L60.918 70.2314Z" fill="black"/>
<path d="M73.0096 77.2769L63.4827 79.8567L64.762 84.6749L74.2889 82.0951L73.0096 77.2769Z" fill="black"/>
<path d="M67.9019 58.0337L63.1309 59.3256L65.6854 68.9468L70.4564 67.6549L67.9019 58.0337Z" fill="black"/>
<path d="M75.2151 66.3696L70.4436 67.6599L72.9948 77.282L77.7663 75.9917L75.2151 66.3696Z" fill="black"/>
<path d="M44.084 64.4737L39.3127 65.7648L40.5912 70.5833L45.3625 69.2922L44.084 64.4737Z" fill="black"/>
<path d="M40.585 70.5699L35.814 71.8619L37.0933 76.6802L41.8643 75.3882L40.585 70.5699Z" fill="black"/>
<path d="M37.0931 76.6926L32.322 77.9846L33.6013 82.8029L38.3724 81.5109L37.0931 76.6926Z" fill="black"/>
</g>
<defs>
<clipPath id="clip0_5_314">
<rect width="81" height="91" fill="white" transform="translate(0 0.874405)"/>
</clipPath>
</defs>
</svg>
