<svg width="79" height="95" viewBox="0 0 79 95" fill="none" xmlns="http://www.w3.org/2000/svg">
<path d="M78.2454 65.3011L75.7003 55.7541L78.8465 52.5803L79 52.5287L71.6973 25.0615L67.8221 26.1065L66.7861 22.1974L62.911 23.2424L61.875 19.3333L54.1247 21.4362L53.0887 17.527L41.4632 20.6621L40.4272 16.753L32.6769 18.8559L28.5203 3.21933L24.6451 4.26435L23.6092 0.355209L15.7437 2.48395L12.9173 7.43811V7.46391L7.18763 13.2051L14.452 40.5303L5.71685 42.8913L0 48.6712L1.06152 52.6835L3.14619 60.5018L7.02137 59.4568L8.05731 63.3659L11.9325 62.3209L14.0044 70.1392L17.8796 69.0942L19.9642 76.8995L23.8394 75.8545L25.9113 83.6728L29.7865 82.6278L31.8583 90.4461L32.9071 94.3552L67.7709 84.9243L71.7612 83.8534L77.4781 78.0736L74.9458 68.5265L78.0919 65.3527L78.2454 65.3011Z" fill="black"/>
<path d="M31.3979 79.8024L27.5355 80.8474L25.4509 73.0291L21.5757 74.0741L19.5038 66.2559L15.6286 67.3138L13.5567 59.4955L9.66876 60.5405L8.63282 56.6314L4.75763 57.6764L2.55786 49.3549L6.90625 44.9685L17.2529 42.1688L9.74549 13.9017L15.4879 8.1606L21.9977 3.18063L23.0337 7.08977L26.9088 6.04476L31.0526 21.6813L38.803 19.5784L39.8389 23.4875L51.4645 20.3525L52.5132 24.2616L60.2635 22.1716L61.2995 26.0678L65.1747 25.0228L66.2106 28.9319L70.0858 27.8869L76.4293 51.7546L73.1552 55.0574L75.662 64.5271L72.3879 67.8298L74.933 77.3898L70.5718 81.7763L34.5185 91.5298L31.3979 79.8024Z" fill="white"/>
<path d="M67.7838 26.1581L66.7479 22.2877L62.9111 23.3327L61.8751 19.4623L54.1248 21.5523L53.0888 17.6819L41.4249 20.7395L40.389 16.8691L32.6386 18.9591L28.4821 3.28384L24.6452 4.32886L23.6093 0.45842L15.8206 2.52265L16.8565 6.39309L13.0197 7.43811L22.3687 42.6204L18.5319 43.6654L17.496 39.795L5.7937 42.93L6.82964 46.8004L7.35401 48.7615L8.95268 54.6574L12.7895 53.6124L13.8382 57.4828L17.675 56.4378L19.7597 64.2561L23.5965 63.2111L25.6684 71.0294L29.5052 69.9715L31.5771 77.7897L35.4139 76.7447L37.4986 84.563L38.5345 88.4334L73.5391 79.0541L77.3759 77.9962L74.2553 66.2687L78.0921 65.2237L74.9843 53.4963L78.8211 52.4513L71.6206 25.126L67.7838 26.1581Z" fill="white"/>
<path d="M16.869 6.41951L12.99 7.468L25.4493 54.3744L29.3284 53.3259L16.869 6.41951Z" fill="black"/>
<path d="M23.6634 0.395584L15.885 2.49878L16.9291 6.4283L24.7075 4.32511L23.6634 0.395584Z" fill="black"/>
<path d="M28.4872 3.28502L24.6082 4.33351L33.9527 39.5133L37.8317 38.4648L28.4872 3.28502Z" fill="black"/>
<path d="M40.3879 16.8271L32.6426 18.9221L33.6826 22.8349L41.428 20.7399L40.3879 16.8271Z" fill="black"/>
<path d="M46.3552 23.5956L42.4758 24.6428L45.5866 36.3705L49.466 35.3233L46.3552 23.5956Z" fill="black"/>
<path d="M53.0481 17.5969L41.4233 20.739L42.4627 24.6521L54.0875 21.5099L53.0481 17.5969Z" fill="black"/>
<path d="M59.2804 24.4004L55.385 25.4537L58.5107 37.2173L62.4061 36.164L59.2804 24.4004Z" fill="black"/>
<path d="M61.8297 19.4041L54.084 21.4978L55.1234 25.4108L62.8691 23.3171L61.8297 19.4041Z" fill="black"/>
<path d="M66.7534 22.2653L62.8745 23.3145L63.9146 27.2273L67.7934 26.1782L66.7534 22.2653Z" fill="black"/>
<path d="M71.661 25.1418L67.782 26.1902L75.051 53.5565L78.9301 52.508L71.661 25.1418Z" fill="black"/>
<path d="M75.0537 53.543L71.1748 54.5921L74.2917 66.3182L78.1705 65.269L75.0537 53.543Z" fill="black"/>
<path d="M74.3044 66.309L70.4255 67.3582L73.5424 79.0842L77.4212 78.035L74.3044 66.309Z" fill="black"/>
<path d="M72.8853 75.4208L37.864 84.8902L38.9081 88.8197L73.9294 79.3503L72.8853 75.4208Z" fill="black"/>
<path d="M22.3267 42.6614L18.4473 43.7085L19.4853 47.6219L23.3647 46.5748L22.3267 42.6614Z" fill="black"/>
<path d="M17.4121 39.7983L5.78687 42.9384L6.82557 46.8516L18.4508 43.7115L17.4121 39.7983Z" fill="black"/>
<path d="M10.7099 45.7877L6.83105 46.8369L8.90786 54.6501L12.7867 53.601L10.7099 45.7877Z" fill="black"/>
<path d="M16.6667 52.559L12.7878 53.6082L13.8279 57.521L17.7067 56.4718L16.6667 52.559Z" fill="black"/>
<path d="M21.566 55.4396L17.687 56.4881L19.7625 64.3017L23.6415 63.2532L21.566 55.4396Z" fill="black"/>
<path d="M27.5226 62.194L23.6436 63.2425L25.719 71.0561L29.598 70.0076L27.5226 62.194Z" fill="black"/>
<path d="M33.473 68.9732L29.5938 70.021L31.6679 77.8349L35.5471 76.7871L33.473 68.9732Z" fill="black"/>
<path d="M39.6971 75.9819L35.8018 77.0352L37.8867 84.8817L41.7821 83.8284L39.6971 75.9819Z" fill="black"/>
</svg>
