<svg width="168" height="539" viewBox="0 0 168 539" fill="none" xmlns="http://www.w3.org/2000/svg">
<g clip-path="url(#clip0_81_181)">
<path d="M20.66 142.548C23.0675 145.1 8.62018 260.894 8.62018 260.894C8.62018 260.894 2.90436 279.753 22.6171 299.536L38.7194 144.458L20.66 142.548Z" fill="#F1D3CA"/>
<path d="M41.131 91.8276C41.131 91.8276 23.6735 93.0358 20.0615 118.999L16.4526 144.962L34.5167 146.773L41.131 91.8276Z" fill="#42965C"/>
<path d="M109.509 499.116L111.047 527.204L164.408 525.455L134.001 512.004L130.975 497.86L109.509 499.116Z" fill="#FFA98E"/>
<path d="M130.976 497.857L111.047 527.203L109.509 499.115L130.976 497.857Z" fill="#FF9C81"/>
<path d="M137 511.079L164.41 525.453L111.048 527.203L110.051 512.552L137 511.079Z" fill="#0377BD"/>
<path d="M165.265 534.596L110.994 535.949L110.794 526.796L165.066 525.442L165.265 534.596Z" fill="black"/>
<path d="M127.865 512.937L122.017 516.931" stroke="white" stroke-width="0.685" stroke-miterlimit="10"/>
<path d="M133.083 515.556L127.236 519.55" stroke="white" stroke-width="0.685" stroke-miterlimit="10"/>
<path d="M49.3704 498.845L53.7507 528.632L0.370117 529.545L30.8771 513.851L29.2111 497.66L49.3704 498.845Z" fill="#FFA98E"/>
<path d="M29.2095 497.66L49.371 498.847L53.7514 528.635L29.2095 497.66Z" fill="#FF9C81"/>
<path d="M27.1205 513.82L0.373047 529.545L53.7536 528.632L51.8447 513.351L27.1205 513.82Z" fill="#0377BD"/>
<path d="M22.9517 515.865L28.968 519.563" stroke="white" stroke-width="0.685" stroke-miterlimit="10"/>
<path d="M17.8535 518.74L23.8699 522.439" stroke="white" stroke-width="0.685" stroke-miterlimit="10"/>
<path d="M54.4673 537.362L0.196159 538.715L-0.00341797 529.563L54.2677 528.209L54.4673 537.362Z" fill="black"/>
<path d="M52.2603 185.961L98.9406 190.673C98.9406 190.673 116.733 172.83 138.193 497.247L108.384 499.384L72.2058 271.647C72.0458 270.974 71.6355 270.386 71.0586 270.005C70.4817 269.625 69.7817 269.479 69.1013 269.598C68.421 269.717 67.8116 270.092 67.3974 270.646C66.9832 271.201 66.7955 271.893 66.8725 272.581L56.7701 500.955L25.4537 499.225C25.4537 499.225 9.39323 269.407 23.2347 232.254C37.0763 195.102 52.2603 185.961 52.2603 185.961Z" fill="#D1D1D1"/>
<path d="M60.406 46.1961C60.406 46.1961 44.247 43.8225 45.0342 55.6836C45.8215 67.5446 52.9169 65.171 52.9169 65.171C52.9169 65.171 49.7616 76.2408 59.6172 73.4732C69.4728 70.7055 70.2585 61.2181 69.8656 57.2652C69.4728 53.3123 60.406 46.1961 60.406 46.1961Z" fill="#F17B61"/>
<path d="M51.1546 49.2976C51.1546 49.2976 29.5534 19.8803 58.6382 4.77846C87.7229 -10.3234 95.9338 21.2523 95.9338 25.3698C95.9338 29.4872 94.5652 81.9992 62.744 62.7799L51.1546 49.2976Z" fill="#F17B61"/>
<path d="M83.5695 48.7327C83.5695 48.7327 92.3948 90.9834 93.1237 93.8919C93.1237 93.8919 68.2197 151.304 60.3086 93.4963C60.3086 93.4963 62.9819 82.6931 65.9487 59.3072L83.5695 48.7327Z" fill="#F1D3CA"/>
<path d="M82.2555 21.3764C74.5101 19.8106 67.3507 29.0037 64.8706 41.2778L64.6805 42.2161C62.2005 54.4886 67.4146 69.8413 77.5526 67.5112C83.7109 66.0949 85.3801 57.087 85.8928 49.8782L91.6331 46.3534C94.1132 34.0809 90.0018 22.9406 82.2555 21.3764Z" fill="#E4B9AC"/>
<path d="M52.5454 45.608L58.6982 43.5184L56.3688 36.6562L50.216 38.7458C49.7661 38.8978 49.3505 39.1373 48.9931 39.4506C48.6356 39.7639 48.3433 40.1448 48.1328 40.5716C47.9224 40.9984 47.7979 41.4627 47.7666 41.9378C47.7353 42.4129 47.7978 42.8896 47.9505 43.3404C48.2617 44.2511 48.9199 45.001 49.7811 45.4259C50.6423 45.8509 51.6362 45.9164 52.5454 45.608Z" fill="#FFA98E"/>
<path d="M94.3373 33.2328L88.0898 35.0114L90.073 41.9812L96.3204 40.2026C96.7776 40.0734 97.2048 39.855 97.5777 39.56C97.9505 39.265 98.2617 38.899 98.4934 38.4832C98.7251 38.0674 98.8727 37.6098 98.9279 37.1367C98.983 36.6635 98.9446 36.1841 98.8147 35.7259C98.5489 34.8009 97.9284 34.0192 97.0893 33.5519C96.2502 33.0847 95.2607 32.9699 94.3373 33.2328Z" fill="#FFA98E"/>
<path d="M95.1142 35.0145L92.5332 35.748L93.5666 39.3812L96.1476 38.6478C96.5604 38.471 96.8879 38.1393 97.0602 37.7236C97.2325 37.3079 97.2359 36.8411 97.0697 36.4229C96.9913 35.9787 96.7429 35.5829 96.3776 35.3198C96.0123 35.0567 95.5589 34.9471 95.1142 35.0145Z" fill="#F17B61"/>
<path d="M50.8333 40.3663L53.6313 39.3662L54.9439 43.0272L52.1444 44.0272C51.6823 44.1493 51.1908 44.0844 50.776 43.8464C50.3612 43.6084 50.0563 43.2164 49.927 42.755C49.7347 42.3173 49.7219 41.8214 49.8914 41.3744C50.0609 40.9274 50.399 40.5652 50.8326 40.3663H50.8333Z" fill="#F17B61"/>
<path d="M67.581 16.8429C55.833 19.6121 50.3546 30.9502 53.0516 42.3682L53.2567 43.2385C55.9529 54.6573 70.0587 64.7089 77.2441 61.8771L77.502 61.749C85.2001 59.4267 96.3739 44.8028 93.6777 33.3856L93.4734 32.5152C90.7748 21.0965 79.3297 14.0705 67.581 16.8429Z" fill="#F1D3CA"/>
<path d="M69.0307 32.1495C69.8101 32.1495 68.2561 30.3685 66.3124 30.6224C64.3688 30.8764 60.9287 34.7961 60.9287 34.7961C60.9287 34.7961 66.3353 32.1495 69.0307 32.1495Z" fill="#001119"/>
<path d="M76.6004 30.9896C76.094 31.0806 76.6722 29.2221 77.4682 29.1184C78.2641 29.0148 82.2539 28.7608 84.4887 31.4311C81.9071 30.8098 79.2349 30.6602 76.6004 30.9896Z" fill="#001119"/>
<path d="M79.6134 46.1113C79.3074 46.1113 68.5699 47.6051 68.3908 47.545C68.2118 47.4849 72.0313 52.6001 74.9294 52.4244C77.8276 52.2488 79.6134 46.1113 79.6134 46.1113Z" fill="white"/>
<path d="M67.3592 40.1607C67.5872 41.0563 68.1851 41.6766 68.6955 41.5453C69.2058 41.414 69.4338 40.584 69.2058 39.6891C68.9779 38.7943 68.3831 38.1732 67.8712 38.3037C67.3592 38.4343 67.1328 39.2666 67.3592 40.1607Z" fill="#001119"/>
<path d="M77.3165 38.6281C77.3599 39.5514 77.8214 40.2785 78.3467 40.254C78.8721 40.2295 79.2634 39.4628 79.2216 38.5395C79.1797 37.6161 78.7167 36.8874 78.1914 36.9135C77.666 36.9396 77.2747 37.7079 77.3165 38.6281Z" fill="#001119"/>
<path d="M51.5909 37.0693C51.9293 37.0693 59.6038 36.7298 64.007 18.1593C73.4086 23.7676 83.2652 28.5701 93.472 32.5158C93.472 32.5158 93.05 6.65663 73.0343 7.74613C46.0597 9.21937 51.5909 37.0693 51.5909 37.0693Z" fill="#F17B61"/>
<path d="M61.5971 85.4869L72.4309 106.619L91.6955 84.5825L105.54 91.5262C118.683 93.937 119.764 108.248 117.28 121.415L116.375 188.74C116.375 188.74 121.959 244.582 122.245 256.819L13.437 256.366L28.3505 119.845C32.7017 102.094 36.944 90.7231 52.0318 88.4515L61.5971 85.4869Z" fill="#42965C"/>
<path opacity="0.3" d="M117.284 121.416C118.414 115.416 118.787 109.187 117.634 103.946C82.7178 152.63 51.3416 203.706 22.8413 256.412L122.249 256.826C121.964 244.589 116.379 188.747 116.379 188.747L117.284 121.416Z" fill="#002439"/>
<path d="M53.4715 131.377H33.3052V137.415H53.4715V131.377Z" stroke="#FBFAF4" stroke-width="0.5" stroke-miterlimit="10"/>
<path d="M58.8892 85.4875L71.5309 112.354L95.3092 86.6926" stroke="#FBFAF4" stroke-width="0.5" stroke-miterlimit="10"/>
<path d="M122.01 170.232L116.746 171.642L118.152 176.922L123.416 175.512L122.01 170.232Z" fill="#223666"/>
<path d="M112.386 141.786L107.867 142.402C107.495 142.452 107.117 142.352 106.818 142.123C106.519 141.894 106.323 141.556 106.272 141.182V141.188C106.222 140.814 106.323 140.436 106.551 140.136C106.779 139.836 107.116 139.639 107.489 139.588L113.096 138.824C113.469 138.774 113.846 138.874 114.145 139.103C114.444 139.331 114.64 139.669 114.691 140.043L114.746 140.438C114.801 140.822 114.706 141.212 114.482 141.527C114.257 141.842 113.92 142.058 113.541 142.13L112.496 142.273" stroke="#58BED0" stroke-width="0.149" stroke-miterlimit="10"/>
<path d="M92.6978 131.154L71.3118 136.885C70.6771 137.055 70.3001 137.709 70.4696 138.345L71.4626 142.073C71.6322 142.71 72.2842 143.088 72.9189 142.918L94.3048 137.187C94.9395 137.017 95.3166 136.363 95.147 135.727L94.154 131.999C93.9845 131.362 93.3325 130.984 92.6978 131.154Z" fill="#3E84C2"/>
<path d="M80.9958 130.588L80.4515 130.734C79.9195 130.876 79.4207 131.123 78.9835 131.459C78.5463 131.795 78.1794 132.214 77.9037 132.692C77.628 133.17 77.4489 133.698 77.3766 134.245C77.3043 134.793 77.3403 135.349 77.4824 135.883L77.5053 135.968L86.1492 133.65L86.1256 133.565C85.8387 132.488 85.1372 131.569 84.1753 131.011C83.2133 130.453 82.0697 130.3 80.9958 130.588ZM81.5117 133.617C81.3375 133.664 81.1534 133.657 80.9826 133.599C80.8119 133.541 80.6623 133.433 80.5527 133.289C80.443 133.146 80.3783 132.973 80.3667 132.792C80.3551 132.612 80.3972 132.432 80.4875 132.275C80.5779 132.119 80.7125 131.992 80.8743 131.913C81.0361 131.833 81.2179 131.803 81.3967 131.827C81.5755 131.85 81.7432 131.927 81.8787 132.046C82.0142 132.166 82.1113 132.323 82.1578 132.497C82.1888 132.614 82.1967 132.735 82.181 132.854C82.1653 132.973 82.1263 133.088 82.0663 133.192C82.0063 133.296 81.9264 133.387 81.8313 133.46C81.7361 133.533 81.6275 133.587 81.5117 133.618V133.617Z" fill="#506CA6"/>
<path d="M108.412 128.489L56.3677 142.432C55.5819 142.643 55.115 143.452 55.3249 144.24L74.7662 217.251C74.9761 218.039 75.7833 218.507 76.5691 218.297L128.614 204.354C129.399 204.144 129.866 203.334 129.656 202.546L110.215 129.535C110.005 128.747 109.198 128.279 108.412 128.489Z" fill="#081D06"/>
<path d="M90.483 135.856L75.5703 139.852L76.8424 144.628L91.7551 140.632L90.483 135.856Z" fill="#506CA6"/>
<path d="M71.1312 136.933L92.8796 131.107C93.1365 131.038 93.4101 131.074 93.6403 131.208C93.8705 131.341 94.0383 131.561 94.1069 131.819L95.4548 136.881L71.7692 143.226L70.4213 138.164C70.3527 137.907 70.3889 137.632 70.5221 137.401C70.6552 137.17 70.8743 137.002 71.1312 136.933V136.933Z" fill="#223666"/>
<path d="M166.387 160.189L165.397 158.621L165.897 158.288C156.028 141.139 144.585 122.689 132.627 106.147C111.469 81.5039 101.636 92.4772 99.3184 96.582C94.7479 108.813 113.346 126.257 120.116 136.836C123.665 142.385 127.416 147.861 132.33 154.888C120.486 158.94 108.432 162.343 96.2206 165.083C75.6718 163.608 73.6327 161.95 70.3338 163.12C70.3338 163.12 65.522 162.379 67.6439 164.228C68.1905 164.702 79.2617 167.798 78.5683 168.14C77.875 168.482 57.7986 172.747 58.6016 174.6C59.4046 176.453 71.6283 174.181 72.0345 175.108C72.4407 176.036 59.3084 176.877 59.5166 178.649C59.7249 180.42 72.9479 179.157 72.7531 180.002C72.5583 180.847 60.2226 180.925 60.5263 182.274C60.83 183.623 73.9576 182.781 74.4578 183.285C74.9579 183.789 62.6254 183.866 62.231 185.557C61.9375 186.823 73.7044 186.802 77.4261 186.318C90.3628 184.639 97.3487 182.133 100.337 181.413C103.644 181.513 129.617 179.768 158.885 176.125C160.624 175.907 162.28 175.252 163.699 174.221C165.118 173.189 166.254 171.815 167.002 170.225C167.75 168.636 168.086 166.882 167.977 165.128C167.869 163.374 167.321 161.675 166.383 160.19L166.387 160.189Z" fill="#F1D3CA"/>
<path d="M148.782 130.026C143.576 121.872 140.872 114.579 135.341 106.922C114.183 82.2778 97.0247 88.7792 94.7071 92.8832C90.4751 104.211 118.186 143.149 117.283 141.79C127.457 140.787 138.704 131.784 148.782 130.026Z" fill="#42965C"/>
</g>
<defs>
<clipPath id="clip0_81_181">
<rect width="168" height="538" fill="white" transform="translate(0 0.716309)"/>
</clipPath>
</defs>
</svg>
