<svg width="67" height="63" viewBox="0 0 67 63" fill="none" xmlns="http://www.w3.org/2000/svg">
<g clip-path="url(#clip0_104_52)">
<path d="M18.4863 50.8589V48.2089C18.4863 46.9089 19.1863 45.8589 20.5863 45.0589C21.9863 44.2589 23.7863 43.8589 25.9863 43.8589C26.4197 43.8589 26.8197 43.8672 27.1863 43.8839C27.553 43.9006 27.9197 43.9422 28.2863 44.0089C28.0197 44.5756 27.8197 45.1506 27.6863 45.7339C27.553 46.3172 27.4863 46.9422 27.4863 47.6089V50.8589H18.4863ZM30.4863 50.8589V47.6089C30.4863 45.4422 31.5947 43.6922 33.8113 42.3589C36.028 41.0256 38.9197 40.3589 42.4863 40.3589C46.0863 40.3589 48.9863 41.0256 51.1863 42.3589C53.3863 43.6922 54.4863 45.4422 54.4863 47.6089V50.8589H30.4863ZM57.4863 50.8589V47.6089C57.4863 46.9422 57.428 46.3172 57.3113 45.7339C57.1947 45.1506 57.003 44.5756 56.7363 44.0089C57.103 43.9422 57.4697 43.9006 57.8363 43.8839C58.203 43.8672 58.5863 43.8589 58.9863 43.8589C61.253 43.8589 63.0697 44.2589 64.4363 45.0589C65.803 45.8589 66.4863 46.9089 66.4863 48.2089V50.8589H57.4863ZM42.4863 43.3589C39.8197 43.3589 37.653 43.7589 35.9863 44.5589C34.3197 45.3589 33.4863 46.3756 33.4863 47.6089V47.8589H51.4863V47.5589C51.4863 46.3589 50.6613 45.3589 49.0113 44.5589C47.3613 43.7589 45.1863 43.3589 42.4863 43.3589ZM25.9863 42.3589C25.0197 42.3589 24.1947 42.0172 23.5113 41.3339C22.828 40.6506 22.4863 39.8256 22.4863 38.8589C22.4863 37.8922 22.828 37.0672 23.5113 36.3839C24.1947 35.7006 25.0197 35.3589 25.9863 35.3589C26.953 35.3589 27.778 35.7006 28.4613 36.3839C29.1447 37.0672 29.4863 37.8922 29.4863 38.8589C29.4863 39.8256 29.1447 40.6506 28.4613 41.3339C27.778 42.0172 26.953 42.3589 25.9863 42.3589ZM58.9863 42.3589C58.0197 42.3589 57.1947 42.0172 56.5113 41.3339C55.828 40.6506 55.4863 39.8256 55.4863 38.8589C55.4863 37.8922 55.828 37.0672 56.5113 36.3839C57.1947 35.7006 58.0197 35.3589 58.9863 35.3589C59.953 35.3589 60.778 35.7006 61.4613 36.3839C62.1447 37.0672 62.4863 37.8922 62.4863 38.8589C62.4863 39.8256 62.1447 40.6506 61.4613 41.3339C60.778 42.0172 59.953 42.3589 58.9863 42.3589ZM42.4863 38.8589C40.8197 38.8589 39.403 38.2756 38.2363 37.1089C37.0697 35.9422 36.4863 34.5256 36.4863 32.8589C36.4863 31.1589 37.0697 29.7339 38.2363 28.5839C39.403 27.4339 40.8197 26.8589 42.4863 26.8589C44.1863 26.8589 45.6113 27.4339 46.7613 28.5839C47.9113 29.7339 48.4863 31.1589 48.4863 32.8589C48.4863 34.5256 47.9113 35.9422 46.7613 37.1089C45.6113 38.2756 44.1863 38.8589 42.4863 38.8589ZM42.4863 29.8589C41.653 29.8589 40.9447 30.1422 40.3613 30.7089C39.778 31.2756 39.4863 31.9922 39.4863 32.8589C39.4863 33.6922 39.778 34.4006 40.3613 34.9839C40.9447 35.5672 41.653 35.8589 42.4863 35.8589C43.353 35.8589 44.0697 35.5672 44.6363 34.9839C45.203 34.4006 45.4863 33.6922 45.4863 32.8589C45.4863 31.9922 45.203 31.2756 44.6363 30.7089C44.0697 30.1422 43.353 29.8589 42.4863 29.8589Z" fill="#4F8EFE"/>
</g>
<path d="M0 36.9292V34.2792C0 32.9792 0.7 31.9292 2.1 31.1292C3.5 30.3292 5.3 29.9292 7.5 29.9292C7.93333 29.9292 8.33333 29.9375 8.7 29.9542C9.06667 29.9709 9.43333 30.0125 9.8 30.0792C9.53333 30.6459 9.33333 31.2209 9.2 31.8042C9.06667 32.3875 9 33.0125 9 33.6792V36.9292H0ZM12 36.9292V33.6792C12 31.5125 13.1083 29.7625 15.325 28.4292C17.5417 27.0959 20.4333 26.4292 24 26.4292C27.6 26.4292 30.5 27.0959 32.7 28.4292C34.9 29.7625 36 31.5125 36 33.6792V36.9292H12ZM39 36.9292V33.6792C39 33.0125 38.9417 32.3875 38.825 31.8042C38.7083 31.2209 38.5167 30.6459 38.25 30.0792C38.6167 30.0125 38.9833 29.9709 39.35 29.9542C39.7167 29.9375 40.1 29.9292 40.5 29.9292C42.7667 29.9292 44.5833 30.3292 45.95 31.1292C47.3167 31.9292 48 32.9792 48 34.2792V36.9292H39ZM24 29.4292C21.3333 29.4292 19.1667 29.8292 17.5 30.6292C15.8333 31.4292 15 32.4459 15 33.6792V33.9292H33V33.6292C33 32.4292 32.175 31.4292 30.525 30.6292C28.875 29.8292 26.7 29.4292 24 29.4292ZM7.5 28.4292C6.53333 28.4292 5.70833 28.0875 5.025 27.4042C4.34167 26.7209 4 25.8959 4 24.9292C4 23.9625 4.34167 23.1375 5.025 22.4542C5.70833 21.7709 6.53333 21.4292 7.5 21.4292C8.46667 21.4292 9.29167 21.7709 9.975 22.4542C10.6583 23.1375 11 23.9625 11 24.9292C11 25.8959 10.6583 26.7209 9.975 27.4042C9.29167 28.0875 8.46667 28.4292 7.5 28.4292ZM40.5 28.4292C39.5333 28.4292 38.7083 28.0875 38.025 27.4042C37.3417 26.7209 37 25.8959 37 24.9292C37 23.9625 37.3417 23.1375 38.025 22.4542C38.7083 21.7709 39.5333 21.4292 40.5 21.4292C41.4667 21.4292 42.2917 21.7709 42.975 22.4542C43.6583 23.1375 44 23.9625 44 24.9292C44 25.8959 43.6583 26.7209 42.975 27.4042C42.2917 28.0875 41.4667 28.4292 40.5 28.4292ZM24 24.9292C22.3333 24.9292 20.9167 24.3459 19.75 23.1792C18.5833 22.0125 18 20.5959 18 18.9292C18 17.2292 18.5833 15.8042 19.75 14.6542C20.9167 13.5042 22.3333 12.9292 24 12.9292C25.7 12.9292 27.125 13.5042 28.275 14.6542C29.425 15.8042 30 17.2292 30 18.9292C30 20.5959 29.425 22.0125 28.275 23.1792C27.125 24.3459 25.7 24.9292 24 24.9292ZM24 15.9292C23.1667 15.9292 22.4583 16.2125 21.875 16.7792C21.2917 17.3459 21 18.0625 21 18.9292C21 19.7625 21.2917 20.4709 21.875 21.0542C22.4583 21.6375 23.1667 21.9292 24 21.9292C24.8667 21.9292 25.5833 21.6375 26.15 21.0542C26.7167 20.4709 27 19.7625 27 18.9292C27 18.0625 26.7167 17.3459 26.15 16.7792C25.5833 16.2125 24.8667 15.9292 24 15.9292Z" fill="#4F8EFE" fill-opacity="0.3"/>
<defs>
<clipPath id="clip0_104_52">
<rect width="48" height="48" fill="white" transform="translate(18.4863 14.8589)"/>
</clipPath>
</defs>
</svg>
