<svg width="136" height="148" viewBox="0 0 136 148" fill="none" xmlns="http://www.w3.org/2000/svg">
<path d="M49.1227 106.461C60.0399 106.461 68.89 97.6112 68.89 86.694C68.89 75.7769 60.0399 66.9268 49.1227 66.9268C38.2056 66.9268 29.3555 75.7769 29.3555 86.694C29.3555 97.6112 38.2056 106.461 49.1227 106.461Z" fill="#1A2028"/>
<path fill-rule="evenodd" clip-rule="evenodd" d="M29.5817 27.9182C20.732 30.8603 12.6609 35.7628 5.97062 42.2598L20.183 56.895C21.9503 55.1827 23.8951 53.6042 26.0121 52.1865C45.0705 39.4233 70.867 44.5265 83.6302 63.5849C96.3934 82.6433 91.2901 108.44 72.2318 121.203C68.9703 123.387 65.5114 125.048 61.9543 126.205L68.255 145.605C77.1248 142.724 85.2296 137.878 91.9648 131.427C98.6999 124.977 103.892 117.089 107.152 108.351C110.413 99.614 111.659 90.2532 110.796 80.9673C109.934 71.6814 106.986 62.71 102.172 54.7226C97.358 46.7352 90.8026 39.9379 82.9948 34.8378C75.187 29.7378 66.3283 26.4667 57.0797 25.2685C47.8311 24.0704 38.4313 24.9761 29.5817 27.9182Z" fill="#4F8EFE"/>
</svg>
