<svg width="246" height="753" viewBox="0 0 246 753" fill="none" xmlns="http://www.w3.org/2000/svg">
<path d="M232.694 142.138L232.694 190.454L84.2867 190.454C67.6234 190.454 53.043 186.475 40.5455 178.515C28.0481 170.63 18.303 159.583 11.3104 145.374C4.39211 131.166 0.932983 114.614 0.932984 95.719C0.932985 76.7496 4.39211 60.1607 11.3104 45.9523C18.303 31.7438 28.0481 20.6969 40.5456 12.8116C53.043 4.9263 67.6234 0.983645 84.2867 0.983646L232.694 0.983652L232.694 49.2998L88.4154 49.2998C79.7118 49.2998 71.9752 51.1968 65.2058 54.9906C58.4363 58.8589 53.1174 64.2894 49.2492 71.282C45.3809 78.2746 43.4467 86.4203 43.4467 95.719C43.4467 105.092 45.3809 113.238 49.2492 120.156C53.1174 127.149 58.4363 132.542 65.2058 136.336C71.9752 140.204 79.7118 142.138 88.4154 142.138L232.694 142.138ZM232.694 278.523L4.16893 278.523L4.16893 230.206L232.694 230.206L232.694 278.523ZM53.4894 433.179L110.509 433.291L110.509 440.209L175.563 495.109L175.563 549.673L89.4196 475.916L89.4196 464.646L53.4894 433.179ZM4.16893 390.107L232.694 390.107L232.694 437.642L4.16893 437.642L4.16893 390.107ZM4.16892 497.229L78.8191 446.792L112.406 478.482L4.16892 552.909L4.16892 497.229ZM4.16892 572.995L175.563 572.995L175.563 620.53L4.16892 620.53L4.16892 572.995ZM197.657 596.874C197.657 589.807 200 583.744 204.687 578.685C209.448 573.701 215.138 571.209 221.759 571.209C228.305 571.209 233.922 573.701 238.608 578.685C243.369 583.744 245.75 589.807 245.75 596.874C245.75 603.941 243.369 609.966 238.608 614.951C233.922 620.009 228.305 622.538 221.759 622.538C215.138 622.538 209.448 620.009 204.687 614.951C200 609.966 197.657 603.941 197.657 596.874ZM175.563 749.773L139.856 749.773L139.856 646.557L175.563 646.557L175.563 749.773ZM216.626 669.99L216.626 717.525L56.8369 717.525C52.4479 717.525 49.026 718.194 46.5711 719.533C44.1906 720.872 42.5169 722.732 41.5498 725.112C40.5827 727.567 40.0992 730.394 40.0992 733.593C40.0992 735.825 40.2852 738.056 40.6571 740.288C41.1034 742.52 41.4382 744.231 41.6614 745.421L6.28902 752.897C5.54512 750.517 4.68964 747.169 3.72257 742.854C2.68112 738.54 2.0488 733.295 1.82563 727.121C1.3793 715.665 2.90429 705.622 6.40061 696.993C9.89693 688.438 15.3274 681.78 22.692 677.019C30.0566 672.259 39.3553 669.915 50.5881 669.99L216.626 669.99Z" fill="#DFDFDF"/>
</svg>
